<?xml version="1.0" encoding="UTF-8"?>
<svg xmlns="http://www.w3.org/2000/svg" width="800" height="180" viewBox="0 0 800 180"><rect width="800" height="180" fill="#b8f0d8" /><rect width="800" height="6" fill="#1a1a1a" /><rect x="0" y="6" width="6" height="174" fill="#1a1a1a" /><rect x="0" y="176" width="800" height="4" fill="#1a1a1a" /><rect x="794" y="6" width="6" height="174" fill="#1a1a1a" /><rect x="24" y="24" width="68" height="68" fill="#1a1a1a" /><text x="58" y="68" fill="#b8f0d8" font-family="monospace" font-size="22" font-weight="bold" text-anchor="middle">0x</text><text x="108" y="52" fill="#1a1a1a" font-family="monospace" font-size="22" font-weight="bold">Nur Rabby Shuvo</text><text x="108" y="72" fill="#1a1a1a" font-family="monospace" font-size="11" opacity="0.6">// @0xnurrabby  ·  @pirichain  ·  Bangladesh</text><text x="108" y="96" fill="#1a1a1a" font-family="monospace" font-size="12">Blockchain technology will change the world.</text><text x="108" y="114" fill="#1a1a1a" font-family="monospace" font-size="12">Cryptocurrencies are just a tool for that change.</text><rect x="24" y="148" width="114" height="20" fill="#b8f0d8" stroke="#1a1a1a" stroke-width="1.5" rx="0" /><text x="81" y="161" fill="#0a4a2a" font-family="monospace" font-size="10" font-weight="bold" text-anchor="middle">Blockchain Dev</text><rect x="144" y="148" width="121" height="20" fill="#b3d9ff" stroke="#1a1a1a" stroke-width="1.5" rx="0" /><text x="204" y="161" fill="#002a5a" font-family="monospace" font-size="10" font-weight="bold" text-anchor="middle">Smart Contracts</text><rect x="271" y="148" width="86" height="20" fill="#fff176" stroke="#1a1a1a" stroke-width="1.5" rx="0" /><text x="314" y="161" fill="#3a2e00" font-family="monospace" font-size="10" font-weight="bold" text-anchor="middle">Base Chain</text><rect x="363" y="148" width="100" height="20" fill="#ffc0d4" stroke="#1a1a1a" stroke-width="1.5" rx="0" /><text x="413" y="161" fill="#5a0020" font-family="monospace" font-size="10" font-weight="bold" text-anchor="middle">DeFi Builder</text><rect x="469" y="148" width="44" height="20" fill="#ffd4a8" stroke="#1a1a1a" stroke-width="1.5" rx="0" /><text x="491" y="161" fill="#5a2000" font-family="monospace" font-size="10" font-weight="bold" text-anchor="middle">Web3</text></svg>