<?xml version="1.0" encoding="UTF-8"?>
<svg xmlns="http://www.w3.org/2000/svg" width="600" height="184" viewBox="0 0 600 184"><rect width="600" height="184" fill="#fef9f0" stroke="#1a1a1a" stroke-width="1.5" /><text x="14" y="42" fill="#1a1a1a" font-family="monospace" font-size="12" font-weight="bold">TypeScript</text><rect x="140" y="28" width="400" height="18" fill="#e8e0d0" stroke="#1a1a1a" stroke-width="1.5" rx="0" /><rect x="140" y="28" width="248" height="18" fill="#b3d9ff" stroke="#1a1a1a" stroke-width="1.5" rx="0" /><text x="562" y="42" fill="#002a5a" font-family="monospace" font-size="11" font-weight="bold" text-anchor="middle">62%</text><text x="14" y="78" fill="#1a1a1a" font-family="monospace" font-size="12" font-weight="bold">JavaScript</text><rect x="140" y="64" width="400" height="18" fill="#e8e0d0" stroke="#1a1a1a" stroke-width="1.5" rx="0" /><rect x="140" y="64" width="96" height="18" fill="#fff176" stroke="#1a1a1a" stroke-width="1.5" rx="0" /><text x="562" y="78" fill="#3a2e00" font-family="monospace" font-size="11" font-weight="bold" text-anchor="middle">24%</text><text x="14" y="114" fill="#1a1a1a" font-family="monospace" font-size="12" font-weight="bold">Solidity</text><rect x="140" y="100" width="400" height="18" fill="#e8e0d0" stroke="#1a1a1a" stroke-width="1.5" rx="0" /><rect x="140" y="100" width="44" height="18" fill="#b8f0d8" stroke="#1a1a1a" stroke-width="1.5" rx="0" /><text x="562" y="114" fill="#0a4a2a" font-family="monospace" font-size="11" font-weight="bold" text-anchor="middle">11%</text><text x="14" y="150" fill="#1a1a1a" font-family="monospace" font-size="12" font-weight="bold">Other</text><rect x="140" y="136" width="400" height="18" fill="#e8e0d0" stroke="#1a1a1a" stroke-width="1.5" rx="0" /><rect x="140" y="136" width="12" height="18" fill="#ffc0d4" stroke="#1a1a1a" stroke-width="1.5" rx="0" /><text x="562" y="150" fill="#5a0020" font-family="monospace" font-size="11" font-weight="bold" text-anchor="middle">3%</text></svg>