<?xml version="1.0" encoding="UTF-8"?>
<svg xmlns="http://www.w3.org/2000/svg" width="640" height="240" viewBox="0 0 640 240"><rect x="0" y="0" width="318" height="155" fill="#fff176" stroke="#1a1a1a" stroke-width="2" /><rect x="0" y="0" width="318" height="4" fill="#1a1a1a" /><text x="16" y="30" fill="#1a1a1a" font-family="monospace" font-size="14" font-weight="bold">Baseposting</text><text x="16" y="52" fill="#1a1a1a" font-family="monospace" font-size="11" opacity="0.7">Top-most-used BasePost Generator</text><text x="16" y="68" fill="#1a1a1a" font-family="monospace" font-size="11" opacity="0.7">for the Base ecosystem.</text><rect x="16" y="105" width="100" height="22" fill="#b3d9ff" stroke="#1a1a1a" stroke-width="1.5" /><text x="66" y="120" fill="#002a5a" font-family="monospace" font-size="10" font-weight="bold" text-anchor="middle">TypeScript</text><text x="128" y="120" fill="#1a1a1a" font-family="monospace" font-size="11" opacity="0.5">★ 1</text><rect x="322" y="0" width="318" height="155" fill="#ffc0d4" stroke="#1a1a1a" stroke-width="2" /><rect x="322" y="0" width="318" height="4" fill="#1a1a1a" /><text x="338" y="30" fill="#1a1a1a" font-family="monospace" font-size="14" font-weight="bold">GasRun</text><text x="338" y="52" fill="#1a1a1a" font-family="monospace" font-size="11" opacity="0.7">Onchain car game deployed and</text><text x="338" y="68" fill="#1a1a1a" font-family="monospace" font-size="11" opacity="0.7">running on Base network.</text><rect x="338" y="105" width="100" height="22" fill="#fff176" stroke="#1a1a1a" stroke-width="1.5" /><text x="388" y="120" fill="#3a2e00" font-family="monospace" font-size="10" font-weight="bold" text-anchor="middle">JavaScript</text><text x="450" y="120" fill="#1a1a1a" font-family="monospace" font-size="11" opacity="0.5">★ 1</text><rect x="0" y="158" width="640" height="82" fill="#b3d9ff" stroke="#1a1a1a" stroke-width="2" /><rect x="0" y="158" width="640" height="4" fill="#1a1a1a" /><text x="16" y="184" fill="#1a1a1a" font-family="monospace" font-size="14" font-weight="bold">BaseFlow</text><text x="16" y="202" fill="#002a5a" font-family="monospace" font-size="11" opacity="0.8">Flow automation tooling built for the Base chain ecosystem.</text><rect x="16" y="212" width="100" height="22" fill="#b3d9ff" stroke="#1a1a1a" stroke-width="1.5" /><text x="66" y="227" fill="#002a5a" font-family="monospace" font-size="10" font-weight="bold" text-anchor="middle">TypeScript</text></svg>