<?xml version="1.0" encoding="UTF-8"?>
<svg xmlns="http://www.w3.org/2000/svg" width="642" height="134" viewBox="0 0 642 134"><rect x="1" y="1" width="160" height="44" fill="#b8f0d8" stroke="#1a1a1a" stroke-width="1.5" /><rect x="17" y="18" width="10" height="10" fill="#0a4a2a" stroke="#1a1a1a" stroke-width="1" /><text x="35" y="28" fill="#1a1a1a" font-family="monospace" font-size="13" font-weight="bold">Solidity</text><rect x="161" y="1" width="160" height="44" fill="#b3d9ff" stroke="#1a1a1a" stroke-width="1.5" /><rect x="177" y="18" width="10" height="10" fill="#002a5a" stroke="#1a1a1a" stroke-width="1" /><text x="195" y="28" fill="#1a1a1a" font-family="monospace" font-size="13" font-weight="bold">TypeScript</text><rect x="321" y="1" width="160" height="44" fill="#fff176" stroke="#1a1a1a" stroke-width="1.5" /><rect x="337" y="18" width="10" height="10" fill="#3a2e00" stroke="#1a1a1a" stroke-width="1" /><text x="355" y="28" fill="#1a1a1a" font-family="monospace" font-size="13" font-weight="bold">JavaScript</text><rect x="481" y="1" width="160" height="44" fill="#ffc0d4" stroke="#1a1a1a" stroke-width="1.5" /><rect x="497" y="18" width="10" height="10" fill="#5a0020" stroke="#1a1a1a" stroke-width="1" /><text x="515" y="28" fill="#1a1a1a" font-family="monospace" font-size="13" font-weight="bold">Rust</text><rect x="1" y="45" width="160" height="44" fill="#d4b8ff" stroke="#1a1a1a" stroke-width="1.5" /><rect x="17" y="62" width="10" height="10" fill="#2a0a5a" stroke="#1a1a1a" stroke-width="1" /><text x="35" y="72" fill="#1a1a1a" font-family="monospace" font-size="13" font-weight="bold">Python</text><rect x="161" y="45" width="160" height="44" fill="#ffd4a8" stroke="#1a1a1a" stroke-width="1.5" /><rect x="177" y="62" width="10" height="10" fill="#5a2000" stroke="#1a1a1a" stroke-width="1" /><text x="195" y="72" fill="#1a1a1a" font-family="monospace" font-size="13" font-weight="bold">Hardhat</text><rect x="321" y="45" width="160" height="44" fill="#b8f0d8" stroke="#1a1a1a" stroke-width="1.5" /><rect x="337" y="62" width="10" height="10" fill="#0a4a2a" stroke="#1a1a1a" stroke-width="1" /><text x="355" y="72" fill="#1a1a1a" font-family="monospace" font-size="13" font-weight="bold">Foundry</text><rect x="481" y="45" width="160" height="44" fill="#b3d9ff" stroke="#1a1a1a" stroke-width="1.5" /><rect x="497" y="62" width="10" height="10" fill="#002a5a" stroke="#1a1a1a" stroke-width="1" /><text x="515" y="72" fill="#1a1a1a" font-family="monospace" font-size="13" font-weight="bold">Ethers.js</text><rect x="1" y="89" width="160" height="44" fill="#fff176" stroke="#1a1a1a" stroke-width="1.5" /><rect x="17" y="106" width="10" height="10" fill="#3a2e00" stroke="#1a1a1a" stroke-width="1" /><text x="35" y="116" fill="#1a1a1a" font-family="monospace" font-size="13" font-weight="bold">Next.js</text><rect x="161" y="89" width="160" height="44" fill="#ffc0d4" stroke="#1a1a1a" stroke-width="1.5" /><rect x="177" y="106" width="10" height="10" fill="#5a0020" stroke="#1a1a1a" stroke-width="1" /><text x="195" y="116" fill="#1a1a1a" font-family="monospace" font-size="13" font-weight="bold">React</text><rect x="321" y="89" width="160" height="44" fill="#d4b8ff" stroke="#1a1a1a" stroke-width="1.5" /><rect x="337" y="106" width="10" height="10" fill="#2a0a5a" stroke="#1a1a1a" stroke-width="1" /><text x="355" y="116" fill="#1a1a1a" font-family="monospace" font-size="13" font-weight="bold">Node.js</text><rect x="481" y="89" width="160" height="44" fill="#ffd4a8" stroke="#1a1a1a" stroke-width="1.5" /><rect x="497" y="106" width="10" height="10" fill="#5a2000" stroke="#1a1a1a" stroke-width="1" /><text x="515" y="116" fill="#1a1a1a" font-family="monospace" font-size="13" font-weight="bold">Docker</text></svg>